<svg width="40" height="40" viewBox="0 0 40 40" fill="none" xmlns="http://www.w3.org/2000/svg">
<rect width="40" height="40" rx="20" fill="#3A86FF" fill-opacity="0.07"/>
<path d="M27.9551 11.2894C25.8302 9.16817 23.0051 8 20 8C16.9949 8 14.1698 9.16817 12.0449 11.2894C9.92014 13.4105 8.75 16.2305 8.75 19.2301C8.75 22.2297 9.92014 25.0498 12.0449 27.1708C13.7911 28.914 16.0103 30.0136 18.4136 30.3501L17.7543 31.0083L18.749 32L20.9342 29.8185L19.0167 27.3384L17.9032 28.1952L18.4791 28.9401C13.7708 28.2081 10.1562 24.1326 10.1562 19.2301C10.1562 13.8114 14.5722 9.40292 20 9.40292C25.4278 9.40292 29.8438 13.8114 29.8438 19.2301C29.8438 23.1682 27.5007 26.7155 23.8744 28.2671L24.4287 29.5564C28.5725 27.7833 31.25 23.73 31.25 19.2301C31.25 16.2305 30.0799 13.4105 27.9551 11.2894Z" fill="#3A86FF"/>
<path d="M20.0002 16.184C20.796 16.184 21.4434 16.7099 21.4434 17.3562H22.8497C22.8497 16.1555 21.9356 15.1441 20.7033 14.8604V13.8064H19.297V14.8604C18.0647 15.1441 17.1506 16.1555 17.1506 17.3562C17.1506 18.7762 18.4289 19.9314 20.0002 19.9314C20.796 19.9314 21.4434 20.4573 21.4434 21.1037C21.4434 21.75 20.796 22.2759 20.0002 22.2759C19.2043 22.2759 18.5569 21.75 18.5569 21.1037H17.1506C17.1506 22.3044 18.0647 23.3159 19.297 23.5995V24.6535H20.7033V23.5995C21.9356 23.3158 22.8497 22.3044 22.8497 21.1037C22.8497 19.6837 21.5714 18.5285 20.0002 18.5285C19.2043 18.5285 18.5569 18.0026 18.5569 17.3562C18.5569 16.7099 19.2043 16.184 20.0002 16.184Z" fill="#3A86FF"/>
</svg>
