<svg width="16" height="16" viewBox="0 0 16 16" fill="none" xmlns="http://www.w3.org/2000/svg">
<path d="M0.888889 0H6.22222C6.45797 0 6.68406 0.0936505 6.85076 0.260349C7.01746 0.427049 7.11111 0.653141 7.11111 0.888889V6.22222C7.11111 6.45797 7.01746 6.68406 6.85076 6.85076C6.68406 7.01746 6.45797 7.11111 6.22222 7.11111H0.888889C0.653141 7.11111 0.427049 7.01746 0.260349 6.85076C0.0936505 6.68406 0 6.45797 0 6.22222V0.888889C0 0.653141 0.0936505 0.427049 0.260349 0.260349C0.427049 0.0936505 0.653141 0 0.888889 0Z" fill="#120078"/>
<path d="M9.77778 8.88889H15.1111C15.3469 8.88889 15.573 8.98254 15.7397 9.14924C15.9064 9.31594 16 9.54203 16 9.77778V15.1111C16 15.3469 15.9064 15.573 15.7397 15.7397C15.573 15.9064 15.3469 16 15.1111 16H9.77778C9.54203 16 9.31594 15.9064 9.14924 15.7397C8.98254 15.573 8.88889 15.3469 8.88889 15.1111V9.77778C8.88889 9.54203 8.98254 9.31594 9.14924 9.14924C9.31594 8.98254 9.54203 8.88889 9.77778 8.88889Z" fill="#120078"/>
<path d="M8.88889 3.55556C8.88889 1.59467 10.4836 0 12.4444 0C14.4053 0 16 1.59467 16 3.55556C16 5.51644 14.4053 7.11111 12.4444 7.11111C10.4836 7.11111 8.88889 5.51644 8.88889 3.55556Z" fill="#120078"/>
<path d="M0 12.4444C0 10.4836 1.59467 8.88889 3.55556 8.88889C5.51644 8.88889 7.11111 10.4836 7.11111 12.4444C7.11111 14.4053 5.51644 16 3.55556 16C1.59467 16 0 14.4053 0 12.4444Z" fill="#120078"/>
</svg>
