<svg width="40" height="40" viewBox="0 0 40 40" fill="none" xmlns="http://www.w3.org/2000/svg">
<rect width="40" height="40" rx="20" fill="#8338EC" fill-opacity="0.07"/>
<g clip-path="url(#clip0_1594_13854)">
<path d="M16.6761 13.3878C16.742 13.7396 17.0909 14.017 17.5025 13.94C17.9022 13.8566 18.1295 13.4734 18.0547 13.1131C17.9669 12.6942 17.5532 12.4609 17.1612 12.5778C16.8111 12.6823 16.604 13.0438 16.6761 13.3878Z" fill="#8338EC"/>
<path d="M31.8237 23.2088C27.9977 12.0717 28.2609 12.8347 28.2446 12.7968C27.8463 11.8751 27.0732 11.1585 26.1234 10.8308C25.9875 10.7839 18.2863 8.98244 18.0638 8.90537C17.3812 8.66897 16.4329 8.80149 15.7672 9.41379L9.1675 15.4866C8.42554 16.169 8 17.1405 8 18.1519V28.9058C8 30.1731 9.02551 31.2042 10.2861 31.2042H24.4054C25.666 31.2042 26.6915 30.1731 26.6915 28.9058V27.8664L30.627 26.1821C31.7712 25.687 32.3035 24.3581 31.8237 23.2088ZM24.4054 29.7979H10.2861C9.80094 29.7979 9.40629 29.3977 9.40629 28.9058V18.1519C9.40629 17.5328 9.66626 16.9385 10.1196 16.5215C15.7738 11.3188 12.2789 14.5639 16.7418 10.4483C16.9745 10.2338 17.2958 10.1476 17.6146 10.2437C17.8994 10.3288 17.3968 9.91935 24.572 16.5216C25.0252 16.9385 25.2852 17.5328 25.2852 18.1519V28.9058C25.2852 29.3977 24.8905 29.7979 24.4054 29.7979ZM30.0711 24.8904L26.6914 26.3367V18.1519C26.6914 17.1405 26.2659 16.169 25.524 15.4867L20.6092 10.9642L25.6954 12.1711C26.2506 12.372 26.7031 12.7927 26.9435 13.3316C30.7622 24.4475 30.5046 23.7014 30.5214 23.7399C30.7134 24.1837 30.5102 24.7003 30.0711 24.8904Z" fill="#8338EC"/>
<path d="M19.3426 17.4826C18.9846 17.3323 18.5724 17.5008 18.4221 17.8589L14.9991 26.0172C14.8038 26.4827 15.1488 26.9926 15.6472 26.9926C15.9219 26.9926 16.1829 26.8306 16.2959 26.5614L19.7189 18.403C19.8692 18.0449 19.7007 17.6328 19.3426 17.4826Z" fill="#8338EC"/>
<path d="M16.0469 19.5089C16.0469 18.1518 15.053 17.0477 13.8312 17.0477C12.6095 17.0477 11.6156 18.1518 11.6156 19.5089C11.6156 20.8659 12.6095 21.97 13.8313 21.97C15.053 21.97 16.0469 20.8659 16.0469 19.5089ZM13.8313 20.5637C13.3925 20.5637 13.0219 20.0807 13.0219 19.5089C13.0219 18.9371 13.3925 18.454 13.8313 18.454C14.27 18.454 14.6406 18.9371 14.6406 19.5089C14.6406 20.0807 14.27 20.5637 13.8313 20.5637Z" fill="#8338EC"/>
<path d="M20.9265 22.626C19.7047 22.626 18.7108 23.7301 18.7108 25.0871C18.7108 26.4442 19.7047 27.5483 20.9265 27.5483C22.1482 27.5483 23.1421 26.4442 23.1421 25.0871C23.1421 23.7301 22.1482 22.626 20.9265 22.626ZM20.9265 26.142C20.4878 26.142 20.1171 25.6589 20.1171 25.0871C20.1171 24.5153 20.4877 24.0323 20.9265 24.0323C21.3652 24.0323 21.7358 24.5153 21.7358 25.0871C21.7358 25.6589 21.3652 26.142 20.9265 26.142Z" fill="#8338EC"/>
</g>
<defs>
<clipPath id="clip0_1594_13854">
<rect width="24" height="24" fill="white" transform="translate(8 8)"/>
</clipPath>
</defs>
</svg>
