<svg width="36" height="36" viewBox="0 0 36 36" fill="none" xmlns="http://www.w3.org/2000/svg">
<path d="M18 0C27.9 0 36 8.1 36 18C36 27.9 27.9 36 18 36C8.1 36 0 27.8999 0 18C0 8.10012 8.1 0 18 0Z" fill="#DD4B39"/>
<path d="M27.1126 14.9624V16.9874H29.1375V19.0125H27.1126V21.0375H25.0875V19.0125H23.0625V16.9874H25.0875V14.9624H27.1126Z" fill="white"/>
<path d="M8.88811 23.0624C6.18811 20.3624 6.18811 15.6374 9.00057 12.9375C11.0256 10.9125 13.9505 10.4625 16.538 11.475L17.5505 12.0375L18.6755 12.825L16.8755 14.625L16.2006 14.1751C14.6256 13.1627 12.3755 13.3876 10.9131 14.8501C9.2256 16.5376 9.11314 19.5751 10.9131 21.3751C12.6007 23.1751 15.6382 23.1751 17.2131 21.3751C17.6631 20.9252 18.1131 20.2501 18.2256 19.5751V19.3501H14.1757V17.1001H20.5881L20.7006 17.6627V19.2376C20.5881 20.7001 20.0256 22.1627 19.013 23.1751C16.3131 25.7624 11.5881 25.7624 8.88811 23.0624Z" fill="white"/>
</svg>
