<svg width="170" height="186" viewBox="0 0 170 186" fill="none" xmlns="http://www.w3.org/2000/svg">
<path d="M89.4726 77.9577L91.1213 68.9471C91.1213 68.9471 95.3534 68.5892 95.7491 65.8275C96.1448 63.0659 93.1211 63.1529 93.1211 63.1529C93.1211 63.1529 93.3058 59.2272 89.705 57.4506C86.1043 55.6741 83.3824 57.0188 81.7189 59.7493C78.8304 64.4812 80.8945 67.1952 86.3615 69.4364L85.4152 75.2765" fill="#FFBE0B"/>
<path d="M94.9478 63.6626C94.9478 63.6626 97.6698 60.2146 93.492 56.4383C89.3143 52.662 87.5469 53.8934 86.2873 51.9248C85.0277 49.9562 79.9465 54.5124 84.7277 58.4086C89.5088 62.3047 89.5319 61.8746 89.5319 61.8746C89.5319 61.8746 88.1421 64.2619 89.5863 64.9383C91.0306 65.6148 92.9842 63.4606 92.9842 63.4606" fill="#030207"/>
<path d="M84.1551 59.4479L82.4355 61.1081" stroke="#170C2C" stroke-width="1.09018" stroke-miterlimit="10"/>
<path d="M85.4139 60.701C85.7736 60.701 86.0652 60.4106 86.0652 60.0523C86.0652 59.6941 85.7736 59.4037 85.4139 59.4037C85.0543 59.4037 84.7627 59.6941 84.7627 60.0523C84.7627 60.4106 85.0543 60.701 85.4139 60.701Z" fill="#030207"/>
<path d="M83.3788 59.198C83.7384 59.198 84.03 58.9076 84.03 58.5494C84.03 58.1912 83.7384 57.9008 83.3788 57.9008C83.0191 57.9008 82.7275 58.1912 82.7275 58.5494C82.7275 58.9076 83.0191 59.198 83.3788 59.198Z" fill="#030207"/>
<path d="M72.1824 73.7145C64.9529 74.2415 55.4434 89.9149 55.4434 89.9149" stroke="#170C2C" stroke-width="0.8" stroke-linejoin="bevel"/>
<path d="M72.1828 88.399C72.1828 88.399 63.9988 101.534 57.7075 102.409C51.4161 103.284 46.4866 95.0043 45.0918 95.0043" stroke="#170C2C" stroke-width="0.8" stroke-linejoin="bevel"/>
<path d="M48.0693 93.0997C48.0693 93.0997 41.6527 97.0074 40.0963 96.6363C38.54 96.2653 45.6392 92.0489 45.6392 92.0489C45.6392 92.0489 36.5962 97.3407 35.2641 96.2045C34.537 95.5839 42.8991 90.8701 42.8991 90.8701C42.8991 90.8701 35.9532 94.561 34.6772 94.1538C33.3055 93.722 42.4622 88.9441 42.4622 88.9441C42.4622 88.9441 36.982 89.2232 38.3834 87.4237C38.7246 86.9854 46.1322 85.749 48.6925 86.2449C51.2529 86.7407 59.2803 93.2245 59.2803 93.2245" stroke="#170C2C" stroke-width="0.8" stroke-linejoin="bevel"/>
<path d="M102.342 89.0053C102.342 89.0053 117.966 99.5134 123.648 98.3017C129.329 97.09 137.32 86.9727 137.32 86.9727C137.32 86.9727 142.596 86.5097 144.015 85.8989C145.435 85.2881 148.137 82.0044 147.593 81.3985C147.049 80.7926 143.158 83.9795 143.158 83.9795" stroke="#170C2C" stroke-width="0.8" stroke-linejoin="bevel"/>
<path d="M139.881 82.5511C139.881 82.5511 144.332 81.3458 145.844 81.9796" stroke="#170C2C" stroke-width="1.09018" stroke-linejoin="bevel"/>
<path d="M135.974 80.4166C135.974 80.4166 133.792 79.6088 132.322 80.4166C130.851 81.2244 122.379 86.3782 122.379 86.3782C122.379 86.3782 109.697 75.5681 105.232 75.4154" stroke="#170C2C" stroke-width="0.8" stroke-linejoin="bevel"/>
<path d="M138.461 83.9847C146.569 83.9847 153.141 77.4391 153.141 69.3647C153.141 61.2903 146.569 54.7446 138.461 54.7446C130.353 54.7446 123.78 61.2903 123.78 69.3647C123.78 77.4391 130.353 83.9847 138.461 83.9847Z" fill="#FFBE0B"/>
<path d="M118.397 185.999H94.026C94.026 185.999 97.3505 182.09 99.7605 181.645C99.7605 181.645 86.9465 161.21 84.7159 152.503C83.2275 146.693 83.8027 141.04 83.8027 141.04L81.9928 151.38L85.8002 186H60.4551C60.4551 186 65.0942 182.712 67.3249 182.269C67.3249 182.269 63.97 156.384 64.5052 149.985C65.0405 143.585 65.3412 116.61 74.9285 107.136C81.7349 100.404 92.343 100.404 99.4832 110.832C106.007 120.357 103.76 148.681 103.76 148.681L118.397 185.999Z" fill="#FB5607"/>
<path d="M108.035 82.9949C108.101 88.1658 103.964 92.4174 98.7717 92.483L77.6894 92.7785C72.4971 92.8442 68.2278 88.7239 68.1619 83.553C68.096 78.3821 72.2333 74.1305 77.4256 74.0648L98.508 73.7693C103.7 73.7037 107.97 77.824 108.035 82.9949Z" fill="#8338EC"/>
<rect x="10.9863" y="125.183" width="19.1327" height="19.0539" rx="2" fill="#F1F2FD"/>
<rect x="123.12" y="15.7906" width="12.8528" height="12.7999" fill="#F1F2FD"/>
<ellipse cx="145.842" cy="140.815" rx="24.0298" ry="23.9308" fill="#F1F2FD"/>
<path d="M13.3989 23.8265C14.94 21.1681 18.7787 21.1681 20.3199 23.8265L27.978 37.0361C29.5239 39.7027 27.5998 43.0422 24.5175 43.0422H9.20127C6.11888 43.0422 4.19479 39.7027 5.74076 37.0361L13.3989 23.8265Z" fill="#F1F2FD"/>
<rect width="31.7632" height="28.9765" rx="4" transform="matrix(0.97696 0.213421 -0.215109 0.97659 77.8789 11.5325)" fill="#FFBE0B"/>
<path d="M93.2559 14.593L87.0432 42.7983" stroke="black" stroke-width="0.75"/>
<path d="M93.0813 14.7057C94.5052 10.0647 98.3582 1.69261 102.379 5.33216C106.399 8.97171 97.8555 13.0977 93.0813 14.7057Z" stroke="black" stroke-width="0.75"/>
<path d="M93.0005 14.3876C91.7199 9.25572 88.1292 -0.302557 84.0118 2.51944C79.8944 5.34144 88.2887 11.6074 93.0005 14.3876Z" stroke="black" stroke-width="0.75"/>
<path d="M138.937 74.8477V76.1276H138.063V74.8477V74.7564L137.972 74.7481C137.092 74.668 136.411 74.3586 135.918 73.8265C135.449 73.31 135.201 72.6131 135.184 71.7256H136.326C136.343 72.3654 136.525 72.8751 136.883 73.2415C137.26 73.6271 137.789 73.8135 138.456 73.8135C139.105 73.8135 139.629 73.658 140.015 73.335C140.403 73.0104 140.595 72.5666 140.595 72.0157C140.595 71.5461 140.427 71.1468 140.093 70.8243C139.767 70.5049 139.225 70.2245 138.481 69.9774L138.481 69.9774L138.478 69.9767C137.456 69.6662 136.723 69.266 136.266 68.783C135.816 68.2982 135.589 67.6831 135.589 66.9297C135.589 66.1607 135.812 65.5382 136.252 65.0538C136.697 64.5689 137.31 64.2766 138.098 64.1826L138.186 64.172V64.0833V62.6011H139.067V64.0905V64.1778L139.154 64.1896C139.944 64.2973 140.551 64.6258 140.982 65.1712L140.983 65.1716C141.404 65.698 141.627 66.4182 141.642 67.3426H140.507C140.491 66.6937 140.325 66.1635 139.999 65.7614C139.655 65.3364 139.188 65.1247 138.609 65.1247C138.016 65.1247 137.548 65.2785 137.219 65.6009C136.89 65.9181 136.731 66.3585 136.731 66.908C136.731 67.4232 136.9 67.8439 137.242 68.1592L137.242 68.1592L137.244 68.1602C137.583 68.463 138.128 68.7331 138.868 68.9753L138.868 68.9756C139.603 69.21 140.168 69.4687 140.568 69.7496L140.568 69.7496L140.569 69.7503C140.973 70.0267 141.266 70.347 141.45 70.7101L141.451 70.711C141.64 71.0747 141.737 71.5038 141.737 72.0013C141.737 72.7935 141.498 73.4215 141.026 73.8958L141.026 73.8962C140.558 74.3715 139.895 74.6585 139.026 74.7482L138.937 74.7575V74.8477Z" fill="white" stroke="#FFBE0B" stroke-width="0.2"/>
<path fill-rule="evenodd" clip-rule="evenodd" d="M50.8347 47.9126L37.21 51.5208L41.8182 68.7836L55.4429 65.1754L54.7031 62.4039C54.7027 62.404 54.7024 62.404 54.7021 62.4041C51.4524 63.2647 48.1176 61.3388 47.2536 58.1024C46.3897 54.866 48.3237 51.5447 51.5735 50.6841C51.5738 50.684 51.5741 50.6839 51.5744 50.6838L50.8347 47.9126Z" fill="#3A86FF"/>
<rect x="-0.612317" y="-0.355096" width="22.5679" height="18.8674" transform="matrix(0.966685 -0.255967 0.25795 0.966158 16.4306 56.8724)" fill="#3A86FF" stroke="white" stroke-dasharray="2 2"/>
<path d="M24.8078 60.3366C24.6638 59.7282 24.7386 59.1812 25.0323 58.6956C25.3306 58.2089 25.7852 57.8939 26.3961 57.7505C27.0163 57.6049 27.5649 57.6869 28.0418 57.9965C28.5223 58.3004 28.8373 58.7682 28.9867 59.3998L29.1038 59.8944C29.2489 60.5074 29.1717 61.055 28.8723 61.537C28.5765 62.0134 28.1278 62.3221 27.5262 62.4633C26.92 62.6056 26.3731 62.5306 25.8854 62.2381C25.3967 61.9411 25.076 61.4698 24.9232 60.8242L24.8078 60.3366ZM25.9001 60.6464C25.9858 61.0086 26.1593 61.2841 26.4205 61.4728C26.6807 61.6568 26.9833 61.7084 27.3284 61.6274C27.6595 61.5497 27.8984 61.3735 28.045 61.0988C28.1964 60.8231 28.2253 60.4879 28.1319 60.0931L28.0115 59.5846C27.9258 59.2223 27.7546 58.9463 27.4981 58.7565C27.2415 58.5668 26.9406 58.5124 26.5955 58.5934C26.2505 58.6744 26.0057 58.8568 25.8612 59.1408C25.7167 59.4247 25.6896 59.757 25.7797 60.1379L25.9001 60.6464ZM31.1176 64.8778C30.9736 64.2694 31.049 63.7248 31.3437 63.2438C31.642 62.7571 32.0966 62.4421 32.7075 62.2987C33.3184 62.1553 33.8659 62.2327 34.3499 62.5308C34.834 62.829 35.1524 63.3008 35.3052 63.9464L35.4222 64.441C35.5662 65.0494 35.4891 65.5969 35.1908 66.0836C34.896 66.5646 34.4455 66.8762 33.8393 67.0185C33.2331 67.1608 32.6861 67.0857 32.1985 66.7933C31.7098 66.4962 31.3891 66.0249 31.2363 65.3794L31.1176 64.8778ZM32.2115 65.1946C32.2983 65.5615 32.4724 65.8393 32.7336 66.028C32.9938 66.212 33.2964 66.2635 33.6415 66.1825C33.9772 66.1037 34.2184 65.927 34.3651 65.6524C34.5107 65.3731 34.5368 65.0361 34.4433 64.6413L34.3213 64.1258C34.2345 63.7589 34.061 63.4835 33.8009 63.2994C33.5454 63.1143 33.2474 63.0617 32.907 63.1416C32.5759 63.2193 32.3329 63.3989 32.178 63.6803C32.0267 63.9561 31.9972 64.289 32.0895 64.6791L32.2115 65.1946ZM28.9576 67.2011L28.1143 66.9137L31.2116 57.8187L32.0549 58.1061L28.9576 67.2011Z" fill="white"/>
</svg>
