<svg width="210" height="219" viewBox="0 0 210 219" fill="none" xmlns="http://www.w3.org/2000/svg">
<rect x="28.5566" y="44.9872" width="140.802" height="140.799" rx="70.3994" fill="#F1F2FD"/>
<rect y="115.386" width="14.9864" height="14.9864" rx="2" fill="#F1F2FD"/>
<path d="M199.867 190.555C205.257 190.555 209.627 186.185 209.627 180.795C209.627 175.405 205.257 171.035 199.867 171.035C194.477 171.035 190.107 175.405 190.107 180.795C190.107 186.185 194.477 190.555 199.867 190.555Z" fill="#F1F2FD"/>
<path d="M102.968 176.655L104.116 164.721C104.116 164.721 110.364 163.37 110.406 159.169C110.448 154.968 105.976 155.661 105.976 155.661C105.976 155.661 105.491 149.752 99.784 147.788C94.0774 145.824 88.5373 153.2 87.7369 157.943C86.5468 164.947 90.0755 165.89 97.3264 166.164L96.2642 173.998" fill="#FFBE0B"/>
<path d="M108.796 156.08C108.796 156.08 112.185 150.4 105.226 145.559C98.2664 140.718 95.8773 142.899 93.622 140.203C91.3667 137.508 84.696 145.297 92.5538 150.204C100.412 155.11 100.385 154.455 100.385 154.455C100.385 154.455 98.7752 158.296 101.057 159.028C103.339 159.76 105.836 156.163 105.836 156.163" fill="#030207"/>
<path d="M113.795 133.224L130.838 150.442L116.36 166.42" stroke="#170C2C" stroke-width="1.09247" stroke-miterlimit="10"/>
<path d="M83.557 166.937L69.8496 150.126L88.1687 132.504" stroke="#170C2C" stroke-width="1.09247" stroke-miterlimit="10"/>
<path d="M124.816 120.665C128.27 123.101 153.439 139.347 152.659 150.822C151.948 161.299 122.105 184.994 122.105 184.994" stroke="#170C2C" stroke-width="1.09247" stroke-miterlimit="10"/>
<path d="M73.8482 182.183C73.8482 182.183 45.6837 158.714 47.823 147.541C49.6082 138.13 71.2091 123.899 78.1714 119.65" stroke="#170C2C" stroke-width="1.09247" stroke-miterlimit="10"/>
<path d="M113.793 133.224C109.365 135.039 107.104 136.074 101.668 136.074C95.2979 136.074 93.0753 134.937 88.166 132.504" stroke="#170C2C" stroke-width="1.09247" stroke-miterlimit="10"/>
<path d="M78.1837 119.645C77.5871 117.665 77.2863 115.607 77.2911 113.539C77.2911 103.108 84.2652 94.0598 94.6878 91.504V31.4469C94.6878 28.4002 97.1306 25.9307 100.487 25.9307C103.938 25.9307 106.286 28.4002 106.286 31.4469V34.3479H118.264V42.0837H106.363V46.749H114.022V53.3275H106.223V91.1767C118.357 92.4739 126.069 101.995 126.069 113.545C126.07 115.973 125.649 118.382 124.825 120.665" stroke="#170C2C" stroke-width="1.09247" stroke-miterlimit="10"/>
<path d="M99.5605 1L99.8432 16.8764" stroke="#0083C8" stroke-width="4.36988" stroke-miterlimit="10"/>
<path d="M80.4199 13.3532L89.3876 23.389" stroke="#0083C8" stroke-width="4.36988" stroke-miterlimit="10"/>
<path d="M119.27 13.3532L110.303 23.389" stroke="#0083C8" stroke-width="4.36988" stroke-miterlimit="10"/>
<path d="M101.54 124.691C107.627 124.691 112.561 119.756 112.561 113.67C112.561 107.583 107.627 102.649 101.54 102.649C95.4536 102.649 90.5195 107.583 90.5195 113.67C90.5195 119.756 95.4536 124.691 101.54 124.691Z" stroke="#170C2C" stroke-width="1.09247" stroke-miterlimit="10"/>
<path d="M128.311 200.203C130.577 200.13 132.37 198.202 131.953 195.975C129.222 181.391 116.066 170.721 100.853 171.466C98.0771 171.619 95.3378 172.139 92.7135 172.998C86.6809 175.07 81.4517 178.998 77.7655 184.211C74.8965 188.291 73.0981 192.993 72.5115 197.905C72.2434 200.15 74.1542 201.948 76.4139 201.875L128.311 200.203Z" fill="#FB5607"/>
<circle cx="161.337" cy="87.7428" r="21.9622" transform="rotate(-0.500807 161.337 87.7428)" fill="#FFBE0B"/>
<path d="M161.336 78.2123V89.6757" stroke="white" stroke-width="3"/>
<path d="M161.336 93.2498L161.336 97.2734" stroke="white" stroke-width="3"/>
</svg>
