<svg width="228" height="182" viewBox="0 0 228 182" fill="none" xmlns="http://www.w3.org/2000/svg">
<path d="M127.755 93.3906L103.045 91.2061L83.3857 67.3149" stroke="black" stroke-width="0.77"/>
<path d="M86.9416 47.2237C86.9416 47.2237 92.2354 56.652 89.3308 60.9786C86.4261 65.3052 72.1724 55.5319 72.1724 55.5319" fill="black"/>
<path d="M79.3706 62.2784L79.0499 48.6274C79.0499 48.6274 74.7391 46.3335 75.5828 43.234C76.4265 40.1346 79.5624 41.5855 79.5624 41.5855C79.5624 41.5855 81.1461 37.3282 85.7573 37.0773C90.3686 36.8264 92.8101 42.1559 92.3974 45.8189C91.8061 51.2242 89.4609 53.8093 84.064 52.4975L84.6003 60.0014" fill="#FFBE0B"/>
<path d="M79.2866 58.5282C84.257 57.1186 81.6981 40.9173 81.6981 40.9173C86.6044 43.8747 92.1577 42.6653 92.1577 42.6653C92.1577 42.6653 90.8603 34.906 82.4742 35.7354C74.0881 36.5648 72.1522 41.8952 72.1522 41.8952C72.1522 41.8952 63.1631 43.9447 62.935 51.1724C62.7068 58.4001 70.4083 63.3086 70.4083 63.3086C70.4083 63.3086 75.3253 59.645 79.2866 58.5282Z" fill="black"/>
<path d="M98.0553 83.619C100.272 83.9118 102.336 82.3192 102.194 80.0877C101.507 69.292 93.1706 60.2177 82.0608 58.9389C79.9721 58.7114 77.8656 58.7618 75.8031 59.0799C71.05 59.8827 66.6677 62.1684 63.2779 65.6021C60.8605 68.0632 59.0477 71.0236 57.9593 74.2605C57.2483 76.3748 58.8266 78.4384 61.038 78.7304L98.0553 83.619Z" fill="#3A86FF"/>
<path d="M67.8545 70.7782C67.8545 70.7782 90.4802 104.467 97.7948 106.081C105.108 107.695 129.371 108.23 132.288 104.267" stroke="black" stroke-width="0.770194" stroke-miterlimit="10" stroke-linejoin="bevel"/>
<path d="M80.5908 67.3148L102.264 94.7973C102.264 94.7973 125.18 94.9294 131.428 95.7389C137.676 96.5501 140.058 103.407 137.914 104.205" stroke="black" stroke-width="0.770194" stroke-miterlimit="10" stroke-linejoin="bevel"/>
<path d="M141.146 85.0192L171.085 143.32" stroke="#FFBE0B" stroke-width="19.64" stroke-miterlimit="10" stroke-linecap="round"/>
<path d="M218.767 134.547C217.785 138.309 215.909 141.598 213.425 144.248C212.076 145.689 210.545 146.942 208.881 147.976C203.817 151.128 197.519 152.274 191.291 150.65C179.256 147.509 172.046 135.208 175.187 123.174C178.327 111.14 190.63 103.93 202.663 107.072C214.697 110.211 221.908 122.512 218.767 134.547Z" fill="#8338EC"/>
<path d="M171.47 180.247C174.176 180.924 176.919 179.278 177.596 176.571C178.272 173.865 176.627 171.122 173.92 170.445C171.214 169.769 168.471 171.414 167.794 174.121C167.118 176.828 168.763 179.57 171.47 180.247Z" fill="#030207"/>
<path d="M134.585 107.462C136.19 107.863 137.817 106.887 138.218 105.282C138.619 103.677 137.643 102.05 136.038 101.649C134.433 101.248 132.807 102.224 132.405 103.829C132.004 105.434 132.98 107.061 134.585 107.462Z" fill="#030207"/>
<path d="M193.719 180.775C196.426 181.451 199.168 179.806 199.845 177.099C200.521 174.393 198.876 171.65 196.169 170.973C193.463 170.297 190.72 171.942 190.043 174.649C189.367 177.355 191.012 180.098 193.719 180.775Z" fill="#030207"/>
<path d="M194.395 178.067C195.606 178.37 196.834 177.633 197.137 176.422C197.439 175.211 196.703 173.984 195.492 173.681C194.281 173.378 193.053 174.115 192.751 175.326C192.448 176.537 193.184 177.764 194.395 178.067Z" fill="white"/>
<path d="M172.148 177.539C173.359 177.842 174.587 177.105 174.889 175.894C175.192 174.683 174.456 173.456 173.245 173.153C172.034 172.85 170.806 173.587 170.504 174.798C170.201 176.009 170.937 177.236 172.148 177.539Z" fill="white"/>
<path d="M204.577 73.5904C206.715 73.0311 208.931 74.3125 209.192 76.5062C210.868 90.5837 201.947 104.097 187.844 107.787C173.742 111.478 159.344 104.068 153.909 90.9743C153.062 88.9339 154.367 86.7309 156.504 86.1716L204.577 73.5904Z" fill="#3A86FF"/>
<path d="M132.688 104.358L142.129 104.533L160.148 167.731L208.948 168.885" stroke="black" stroke-width="2.50313" stroke-miterlimit="10"/>
<path d="M145.275 115.336L224.974 117.223L213.456 151.821L155.142 150.44" stroke="black" stroke-width="0.770194" stroke-miterlimit="10"/>
<path d="M155.906 150.458L156.731 115.607" stroke="black" stroke-width="0.770194" stroke-miterlimit="10"/>
<path d="M213.227 151.816L214.053 116.964" stroke="black" stroke-width="0.770194" stroke-miterlimit="10"/>
<path d="M201.765 151.544L202.589 116.693" stroke="black" stroke-width="0.770194" stroke-miterlimit="10"/>
<path d="M167.37 150.729L168.195 115.879" stroke="black" stroke-width="0.770194" stroke-miterlimit="10"/>
<path d="M178.835 151.001L179.661 116.149" stroke="black" stroke-width="0.770194" stroke-miterlimit="10"/>
<path d="M190.299 151.273L191.125 116.422" stroke="black" stroke-width="0.770194" stroke-miterlimit="10"/>
<path d="M115.012 76.5808L118.346 70.1083L126.578 74.3483L128.496 79.4305L123.244 80.8195L115.012 76.5808Z" fill="#FB5607"/>
<path d="M215.005 166.975L217.725 160.223L209.138 156.762L204.037 158.631L206.416 163.514L215.005 166.975Z" fill="#D14D33"/>
<path d="M137.069 79.2889C133.643 76.9524 131.131 81.0302 128.354 79.4402" stroke="black" stroke-width="0.577646" stroke-miterlimit="10" stroke-linejoin="bevel"/>
<path d="M198.293 151.351C198.293 151.351 198.832 155.55 204.116 158.77" stroke="black" stroke-width="0.577646" stroke-miterlimit="10" stroke-linejoin="bevel"/>
<path d="M124.572 78.3479C125.004 78.4561 125.443 78.1929 125.551 77.7601C125.659 77.3273 125.396 76.8887 124.963 76.7805C124.531 76.6723 124.092 76.9355 123.984 77.3683C123.876 77.8011 124.139 78.2397 124.572 78.3479Z" fill="white"/>
<path d="M227.44 88.434L224.576 95.1257L216.064 91.4846L213.788 86.5514L218.927 84.7912L227.44 88.434Z" fill="#FB5607"/>
<path d="M208.441 84.5022L213.853 86.5631" stroke="black" stroke-width="0.577646" stroke-miterlimit="10" stroke-linejoin="bevel"/>
<path d="M217.682 89.048C218.115 89.1562 218.553 88.893 218.661 88.4602C218.77 88.0274 218.507 87.5888 218.074 87.4806C217.641 87.3724 217.202 87.6355 217.094 88.0684C216.986 88.5012 217.249 88.9398 217.682 89.048Z" fill="white"/>
<path d="M207.471 160.886C207.904 160.994 208.342 160.731 208.451 160.298C208.559 159.866 208.296 159.427 207.863 159.319C207.43 159.211 206.991 159.474 206.883 159.907C206.775 160.339 207.038 160.778 207.471 160.886Z" fill="white"/>
<rect x="110.661" width="51.2856" height="51.2856" rx="4" fill="#F1F2FD"/>
<path d="M20.8844 67.397C22.424 64.7303 26.273 64.7303 27.8126 67.397L35.8039 81.2381C37.3435 83.9048 35.419 87.2381 32.3398 87.2381H16.3573C13.2781 87.2381 11.3536 83.9048 12.8932 81.2381L20.8844 67.397Z" fill="#F1F2FD"/>
<circle cx="122.225" cy="163.12" r="6.10035" fill="#F1F2FD"/>
<path d="M21.9849 149.258L4.9683 149.667L9.74622 181.731L14.3686 155.826L25.8191 155.501" fill="#0083C8"/>
<path d="M88.9778 99.6641C85.6783 95.3559 80.678 92.6845 75.2642 92.335C66.364 91.7623 56.9768 97.2321 54.6203 105.835L51.538 122.169L48.895 135.997L19.1176 144.07C17.1645 150.797 18.3298 158.046 22.293 163.822L22.3637 163.925L59.2336 153.842C64.1386 152.501 67.8112 148.423 68.6334 143.404L70.2931 133.276L74.2538 113.084L113.765 167.339L128.864 151.755L88.9778 99.6641Z" fill="#FB5607"/>
<path d="M123.824 162.08C128.003 157.721 130.24 153.082 128.819 151.72C127.398 150.358 122.858 152.787 118.678 157.146C114.499 161.505 112.262 166.143 113.683 167.506C115.104 168.868 119.644 166.439 123.824 162.08Z" fill="black"/>
<path d="M116.688 164.672L125.279 176.783L141.119 152.536L125.121 165.414L120.78 159.363" fill="#0083C8"/>
<path d="M136.912 165.607C142.018 158.422 145.199 151.918 144.018 151.078C142.836 150.238 137.739 155.381 132.633 162.566C127.527 169.75 124.346 176.255 125.527 177.095C126.709 177.934 131.806 172.791 136.912 165.607Z" fill="black"/>
</svg>
