<svg width="215" height="170" viewBox="0 0 215 170" fill="none" xmlns="http://www.w3.org/2000/svg">
<g clip-path="url(#clip0_241_5469)">
<path d="M90.0732 38.1835L102.651 37.4188" stroke="black" stroke-width="0.652152" stroke-miterlimit="10" stroke-linejoin="bevel"/>
<path d="M98.8929 24.0107L76.2773 25.965" stroke="black" stroke-width="0.652152" stroke-miterlimit="10" stroke-linejoin="bevel"/>
<path d="M183.599 85.9174L197.987 75.1267L215 104.967L194.212 86.4102L184.496 93.6323" fill="#030207"/>
<path d="M197.683 85.3738L197.412 92.29" stroke="white" stroke-width="0.745316" stroke-miterlimit="10"/>
<path d="M200.155 87.9397L199.884 94.8729" stroke="white" stroke-width="0.745316" stroke-miterlimit="10"/>
<path d="M202.66 90.8455L202.372 97.7787" stroke="white" stroke-width="0.745316" stroke-miterlimit="10"/>
<path d="M161.796 133.209L178.182 140.584L160.459 170L166.519 142.759L155.516 137.746" fill="#030207"/>
<path d="M169.109 145.308L162.947 148.418" stroke="white" stroke-width="0.745316" stroke-miterlimit="10"/>
<path d="M168.076 148.724L161.914 151.834" stroke="white" stroke-width="0.745316" stroke-miterlimit="10"/>
<path d="M166.755 152.327L160.594 155.436" stroke="white" stroke-width="0.745316" stroke-miterlimit="10"/>
<path d="M148.491 73.6485L156.887 102.554L182.482 83.1987C182.482 83.1987 188.491 83.6235 193.096 88.9254C197.937 94.4821 196.752 101.466 196.752 101.466L148.711 139.14L128.99 95.9945L128.804 115.163L164.302 131.646C164.302 131.646 166.655 138.104 163.252 144.425C159.968 150.577 154.704 151.358 154.704 151.358L117.225 137.033C111.436 134.824 107.509 129.403 107.17 123.201L104.953 81.0575C104.309 68.6865 113.806 58.1507 126.129 57.5899C136.388 57.1141 145.63 63.7584 148.491 73.6485Z" fill="#FB5607"/>
<path d="M159.967 130.304C154.161 134.858 145.663 132.887 142.413 126.259L122.997 82.6547" stroke="white" stroke-width="0.558987" stroke-miterlimit="10"/>
<path d="M156.886 102.554L156.142 106.19" stroke="white" stroke-width="0.558987" stroke-miterlimit="10"/>
<path d="M128.803 115.163L125.824 117.236" stroke="white" stroke-width="0.558987" stroke-miterlimit="10"/>
<path d="M115.092 13.0677C115.194 17.8428 119.138 21.6323 123.895 21.5303C128.093 21.4454 131.529 18.3356 132.206 14.3252C132.291 13.7984 132.341 13.2546 132.325 12.6939C132.223 7.91878 128.279 4.1293 123.522 4.23126C121.051 4.28224 118.833 5.3868 117.31 7.08612C115.871 8.68348 115.041 10.7906 115.092 13.0677Z" fill="#FFBE0B"/>
<path d="M115.431 3.67034C115.465 5.65855 117.107 7.22192 119.088 7.18793C120.831 7.15395 122.253 5.86247 122.541 4.19713C122.575 3.97622 122.592 3.75531 122.592 3.5174C122.541 1.5292 120.916 -0.0341751 118.935 -0.000188666C117.903 0.0168045 116.989 0.475621 116.362 1.18934C115.77 1.85207 115.414 2.71872 115.431 3.67034Z" fill="black"/>
<path d="M121.339 2.53179C121.373 3.7383 122.354 4.68992 123.573 4.67293C124.64 4.65594 125.503 3.85726 125.672 2.85466C125.689 2.71871 125.706 2.58277 125.706 2.44682C125.672 1.2403 124.691 0.271691 123.472 0.305677C122.845 0.322671 122.287 0.594562 121.897 1.03639C121.542 1.42723 121.322 1.95402 121.339 2.53179Z" fill="black"/>
<path d="M128.99 12.7618C129.024 14.4951 130.463 15.8715 132.189 15.8375C133.713 15.8036 134.965 14.682 135.202 13.2206C135.236 13.0337 135.253 12.8297 135.236 12.6258C135.202 10.8925 133.764 9.51607 132.037 9.55005C131.14 9.56705 130.344 9.97488 129.786 10.5866C129.278 11.1814 128.973 11.9461 128.99 12.7618Z" fill="#FFBE0B"/>
<path d="M117.514 6.86545C117.514 6.86545 120.611 8.75169 126.113 7.61315L126.604 12.8131L129.956 11.9974C129.956 11.9974 130.768 8.9726 133.68 9.9752C133.68 9.9752 133.798 4.02758 130.294 2.94002C124.183 1.03678 118.868 3.84066 117.514 6.86545Z" fill="black"/>
<path d="M0 74.549L82.5907 81.0234V27.2908C82.5907 24.1131 80.0177 21.5302 76.8522 21.5302H5.73852C2.57303 21.5302 0 24.1131 0 27.2908V74.549Z" fill="#FFBE0B"/>
<path d="M82.9456 38.999C77.1225 38.9141 72.2642 40.4265 72.2642 41.3101C72.2642 42.8735 81.1344 42.4487 81.1344 42.4487C81.1344 42.4487 69.5388 44.8447 69.4203 46.2042C69.3357 47.3597 82.2347 46.1532 82.2347 46.1532C82.2347 46.1532 71.7394 48.8891 72.8905 50.4525C73.5846 51.4041 79.6955 48.991 82.5055 49.6878C85.3155 50.3845 104.105 71.9489 114.211 72.4077C124.334 72.8665 141.736 41.667 141.736 41.667" stroke="black" stroke-width="0.652152" stroke-miterlimit="10" stroke-linejoin="bevel"/>
<path d="M28.5576 20.2897C28.5576 20.2897 29.7933 28.9732 30.7752 29.0582C31.757 29.1432 32.1971 21.0544 32.1971 21.0544C32.1971 21.0544 32.7388 30.6896 33.9745 30.8595C35.2102 31.0294 35.9212 20.2727 35.9212 20.2727C35.9212 20.2727 37.4278 28.4464 38.8497 28.1915C40.2717 27.9367 38.8497 20.0178 38.8497 20.0178" stroke="black" stroke-width="0.652152" stroke-miterlimit="10" stroke-linejoin="bevel"/>
<path d="M82.54 81.3972C81.7275 84.9148 71.6554 85.2037 58.0793 82.5187C51.4098 81.1933 46.7039 81.5331 47.7026 84.388C49.1922 88.6533 37.0042 88.6363 23.4958 85.7814C9.97053 82.9266 -0.778625 77.6757 0.0508378 74.1581C0.8803 70.6405 10.9862 70.3686 24.5454 73.0365C31.2149 74.345 35.9209 74.0221 34.939 71.1673C33.4494 66.902 45.6205 66.919 59.1458 69.7738C72.6711 72.6287 83.3695 77.8796 82.54 81.3972Z" fill="#030207"/>
<path d="M61.5498 77.9988L71.351 87.8208" stroke="white" stroke-width="1.3043" stroke-miterlimit="10" stroke-linejoin="bevel"/>
<path d="M17.2159 130.014L7.43164 139.853" stroke="black" stroke-width="0.652152" stroke-miterlimit="10" stroke-linejoin="bevel"/>
<path d="M36.3945 96.2836L46.1957 106.123" stroke="black" stroke-width="0.652152" stroke-miterlimit="10" stroke-linejoin="bevel"/>
<path d="M74.7197 128.231L84.504 138.07" stroke="black" stroke-width="0.652152" stroke-miterlimit="10" stroke-linejoin="bevel"/>
<path d="M22.3617 82.0938L12.5605 91.9158" stroke="white" stroke-width="1.3043" stroke-miterlimit="10" stroke-linejoin="bevel"/>
<path d="M65.8998 101.211L56.0986 111.033" stroke="black" stroke-width="0.652152" stroke-miterlimit="10" stroke-linejoin="bevel"/>
<path d="M32.1456 155.437L22.3613 165.276" stroke="black" stroke-width="0.652152" stroke-miterlimit="10" stroke-linejoin="bevel"/>
<path d="M64.2241 142.437L54.4229 152.276" stroke="black" stroke-width="0.652152" stroke-miterlimit="10" stroke-linejoin="bevel"/>
<path d="M23.665 112.325L33.4493 122.164" stroke="black" stroke-width="0.652152" stroke-miterlimit="10" stroke-linejoin="bevel"/>
<path d="M120.458 48.4133L126.789 39.5259" stroke="white" stroke-width="1.3043" stroke-miterlimit="10" stroke-linejoin="bevel"/>
<path d="M129.616 34.785L113.314 57.7428C113.314 57.7428 89.1585 37.419 82.7598 36.9941" stroke="black" stroke-width="0.652152" stroke-miterlimit="10" stroke-linejoin="bevel"/>
<path d="M22.1075 81.8563L12.3232 91.6784" stroke="black" stroke-width="0.652152" stroke-miterlimit="10" stroke-linejoin="bevel"/>
<path d="M61.8369 77.7098L71.6381 87.5319" stroke="black" stroke-width="0.652152" stroke-miterlimit="10" stroke-linejoin="bevel"/>
<rect x="156.057" y="43.311" width="11.4921" height="11.5366" rx="1" fill="#F1F2FD"/>
<path d="M103.709 142.888C104.094 142.22 105.059 142.22 105.443 142.888L113.114 156.226C113.497 156.892 113.016 157.724 112.247 157.724H96.9055C96.1364 157.724 95.6552 156.892 96.0386 156.226L103.709 142.888Z" fill="#F1F2FD"/>
<path d="M140.221 30.3426C142.401 30.7059 143.912 32.7936 143.161 34.8737C139.667 44.5627 129.686 50.6791 119.196 48.9304C108.703 47.1812 101.225 38.1503 101.042 27.8442C101.003 25.6351 103.098 24.1545 105.274 24.5172L140.221 30.3426Z" fill="#8338EC"/>
</g>
<defs>
<clipPath id="clip0_241_5469">
<rect width="215" height="170" fill="white"/>
</clipPath>
</defs>
</svg>
