<svg width="40" height="40" viewBox="0 0 40 40" fill="none" xmlns="http://www.w3.org/2000/svg">
<rect width="40" height="40" rx="20" fill="#FB5607" fill-opacity="0.07"/>
<path d="M19.3608 19.6887L18.3009 21.8364L15.9308 22.1808C15.6659 22.2192 15.4458 22.4047 15.3632 22.6592C15.2804 22.9138 15.3495 23.1932 15.541 23.3801L17.256 25.0517L16.8511 27.4123C16.8059 27.6761 16.9143 27.9427 17.1309 28.1C17.3473 28.2573 17.6344 28.2782 17.8714 28.1537L19.9912 27.0391L22.111 28.1537C22.2139 28.2077 22.3263 28.2344 22.4382 28.2344C22.4389 28.2344 22.4395 28.2344 22.4402 28.2344C22.828 28.2339 23.1422 27.9193 23.1422 27.5313C23.1422 27.4773 23.1362 27.4247 23.1247 27.3742L22.7264 25.0517L24.4414 23.3801C24.6331 23.1932 24.7021 22.9138 24.6194 22.6592C24.5366 22.4047 24.3165 22.2192 24.0517 22.1808L21.6816 21.8365L20.6218 19.6887C20.5033 19.4489 20.2589 19.2969 19.9914 19.2969C19.7237 19.2969 19.4792 19.4489 19.3608 19.6887ZM20.5843 22.7903C20.6866 22.9978 20.8847 23.1417 21.1136 23.1749L22.4397 23.3675L21.4802 24.3028C21.3145 24.4643 21.2389 24.697 21.2779 24.9252L21.5046 26.2459L20.3186 25.6223C20.1137 25.5148 19.8689 25.5146 19.6642 25.6223L18.478 26.2459L18.7047 24.9252C18.7437 24.697 18.6681 24.4643 18.5024 24.3028L17.5429 23.3675L18.8689 23.1749C19.098 23.1417 19.2959 22.9978 19.3983 22.7903L19.9914 21.5888L20.5843 22.7903Z" fill="#FB5607"/>
<path d="M27.1453 11.7657H24.1735C24.3559 11.4116 24.4595 11.0108 24.4595 10.586C24.4595 9.15997 23.2994 8 21.8735 8C21.132 8 20.4627 8.31421 19.9907 8.8161C19.5188 8.31421 18.8495 8 18.108 8C16.6819 8 15.522 9.15997 15.522 10.586C15.522 11.0108 15.6256 11.4116 15.808 11.7657H12.836C11.41 11.7657 10.25 12.9257 10.25 14.3516V16.2343C10.25 16.6226 10.5648 16.9374 10.9531 16.9374H11.0031V29.414C11.0031 30.84 12.1631 32 13.5891 32H26.3922C27.8181 32 28.9782 30.84 28.9782 29.414V16.9374H29.0282C29.4166 16.9374 29.7313 16.6226 29.7313 16.2343V14.3516C29.7313 12.9257 28.5714 11.7657 27.1453 11.7657ZM28.3251 14.3516V15.5311H20.6938V13.172H27.1453C27.7959 13.172 28.3251 13.7012 28.3251 14.3516ZM21.8735 9.40625C22.5239 9.40625 23.0533 9.93542 23.0533 10.586C23.0533 11.2366 22.5239 11.7657 21.8735 11.7657H20.6938V10.586C20.6938 9.93542 21.223 9.40625 21.8735 9.40625ZM16.9282 10.586C16.9282 9.93542 17.4574 9.40625 18.108 9.40625C18.7584 9.40625 19.2875 9.93542 19.2875 10.586V11.7657H18.108C17.4574 11.7657 16.9282 11.2366 16.9282 10.586ZM11.6562 14.3516C11.6562 13.7012 12.1854 13.172 12.836 13.172H19.2875V15.5311H11.6562V14.3516ZM27.572 29.414C27.572 30.0646 27.0426 30.5938 26.3922 30.5938H13.5891C12.9387 30.5938 12.4094 30.0646 12.4094 29.414V16.9374H27.572V29.414Z" fill="#FB5607"/>
</svg>
