<svg width="223" height="198" viewBox="0 0 223 198" fill="none" xmlns="http://www.w3.org/2000/svg">
<path d="M158.913 107.335C159.682 106.002 161.607 106.002 162.377 107.335L174.631 128.559C175.4 129.893 174.438 131.559 172.898 131.559H148.391C146.851 131.559 145.889 129.893 146.659 128.559L158.913 107.335Z" fill="#F1F2FD"/>
<path d="M147.118 197.626H111.453C111.453 197.626 116.318 191.883 119.844 191.229C119.844 191.229 101.092 161.2 97.8282 148.406C95.65 139.869 96.4918 131.561 96.4918 131.561L93.8432 146.756L99.4149 197.629H62.3247C62.3247 197.629 69.1137 192.798 72.378 192.146C72.378 192.146 67.4684 154.109 68.2517 144.705C69.035 135.302 69.475 95.6623 83.5052 81.7411C93.4657 71.8493 108.99 71.8493 119.439 87.1715C128.985 101.169 125.697 142.79 125.697 142.79L147.118 197.626Z" fill="#8338EC"/>
<path d="M113.195 53.4509H88.9464C82.3745 53.4509 77.0474 48.1237 77.0474 41.5518C77.0474 34.98 82.3745 29.6528 88.9464 29.6528H113.195C119.767 29.6528 125.094 34.98 125.094 41.5518C125.094 48.1237 119.767 53.4509 113.195 53.4509Z" fill="#FB5607"/>
<path d="M112.28 16.3381C111.155 21.7207 105.881 25.1711 100.498 24.0459C95.7391 23.0509 92.4916 18.8148 92.5792 14.1261C92.592 13.5112 92.6603 12.8899 92.7905 12.2643C93.9157 6.88379 99.1895 3.4313 104.572 4.55651C107.373 5.14153 109.649 6.84962 111.031 9.11071C112.306 11.1989 112.818 13.7567 112.28 16.3381Z" fill="#FFBE0B"/>
<path d="M113.657 5.57481C113.19 7.81028 110.999 9.24294 108.764 8.77749C106.787 8.36541 105.437 6.60394 105.473 4.65671C105.478 4.4005 105.508 4.14215 105.561 3.8838C106.029 1.64833 108.219 0.215666 110.455 0.681122C111.618 0.924525 112.564 1.63338 113.138 2.57284C113.668 3.44183 113.882 4.50298 113.657 5.57481Z" fill="black"/>
<path d="M107.187 3.03633C106.903 4.39853 105.569 5.27179 104.206 4.98782C103.002 4.73588 102.18 3.66405 102.201 2.47692C102.204 2.32106 102.223 2.16306 102.255 2.00506C102.539 0.642859 103.873 -0.230403 105.235 0.0535671C105.944 0.20089 106.521 0.634321 106.871 1.20653C107.193 1.73604 107.324 2.38298 107.187 3.03633Z" fill="black"/>
<path d="M96.3309 13.0033C95.9231 14.959 94.0079 16.2124 92.0522 15.8024C90.3248 15.4416 89.1441 13.9022 89.1762 12.1983C89.1804 11.9741 89.206 11.75 89.253 11.5215C89.6608 9.56787 91.576 8.31242 93.5318 8.72236C94.5481 8.93588 95.3765 9.55506 95.8783 10.3771C96.3395 11.1372 96.5274 12.066 96.3309 13.0033Z" fill="#FFBE0B"/>
<path d="M110.632 8.75618C110.632 8.75618 106.714 10.238 100.693 7.78684L99.0343 13.5687L95.3983 11.929C95.3983 11.929 95.1207 8.33343 91.5892 8.85226C91.5892 8.85226 92.7144 2.10102 96.9185 1.60567C104.27 0.740946 109.716 5.03894 110.632 8.75618Z" fill="black"/>
<path d="M76.6296 34.7941C72.163 37.1598 53.8159 55.3083 53.8159 55.3083C53.8159 55.3083 29.941 42.2393 25.1221 43.0271L28.1005 56.5168C28.1005 56.5168 45.8519 72.1203 55.8379 70.0172C65.8238 67.9141 84.1602 50.4723 84.1602 50.4723" stroke="black" stroke-miterlimit="10"/>
<path d="M114.386 48.2069C114.386 48.2069 122.266 70.4975 132.536 74.3813C142.806 78.2651 169.5 58.6647 169.5 58.6647" stroke="black" stroke-miterlimit="10"/>
<path d="M128.68 37.5718L141.048 56.9331" stroke="black" stroke-miterlimit="10"/>
<path d="M136.797 59.0918L162.092 46.1274C162.092 46.1274 166.89 34.9308 170.423 32.6783" stroke="black" stroke-miterlimit="10"/>
<path d="M170.981 15.1981L172.311 41.0735L161.958 68.5952L215.216 76.0425L222.256 20.8156L170.981 15.1981Z" fill="white" stroke="black" stroke-miterlimit="10" stroke-linejoin="bevel"/>
<path d="M169.151 39.9099C169.151 39.9099 176.592 31.3267 178.564 31.7089C180.537 32.0911 169.119 48.5529 169.119 48.5529" fill="white"/>
<path d="M169.151 39.9099C169.151 39.9099 176.592 31.3267 178.564 31.7089C180.537 32.0911 169.119 48.5529 169.119 48.5529" stroke="black" stroke-miterlimit="10" stroke-linejoin="bevel"/>
<path d="M38.999 78.989C36.5094 80.3469 33.39 79.4309 32.0299 76.9414L0.628751 19.4213C-0.729184 16.9318 0.186787 13.8124 2.67633 12.4523C5.16588 11.0944 8.28528 12.0103 9.64535 14.4999L41.0465 72.0221C42.4045 74.5116 41.4885 77.631 38.999 78.989Z" fill="#FFBE0B"/>
<path d="M27.6577 43.5415C27.6577 43.5415 20.3663 39.7965 20.3001 41.3082C20.2339 42.8199 31.0739 49.981 31.0739 49.981" fill="white"/>
<path d="M27.6577 43.5415C27.6577 43.5415 20.3663 39.7965 20.3001 41.3082C20.2339 42.8199 31.0739 49.981 31.0739 49.981" stroke="black" stroke-miterlimit="10" stroke-linejoin="bevel"/>
<path d="M13.2705 45.6447C13.2705 45.6447 21.8729 46.1144 22.5326 48.0745C23.1924 50.0345 13.2705 48.5186 13.2705 48.5186C13.2705 48.5186 25.556 49.8488 25.4236 51.5569C25.2912 53.2649 15.0427 52.4771 15.0427 52.4771C15.0427 52.4771 23.5831 53.6066 23.7155 55.3083C23.8479 57.0099 15.1088 56.2883 15.1088 56.2883" fill="white"/>
<path d="M13.2705 45.6447C13.2705 45.6447 21.8729 46.1144 22.5326 48.0745C23.1924 50.0345 13.2705 48.5186 13.2705 48.5186C13.2705 48.5186 25.556 49.8488 25.4236 51.5569C25.2912 53.2649 15.0427 52.4771 15.0427 52.4771C15.0427 52.4771 23.5831 53.6066 23.7155 55.3083C23.8479 57.0099 15.1088 56.2883 15.1088 56.2883" stroke="black" stroke-miterlimit="10" stroke-linejoin="bevel"/>
<path d="M197.473 32.594L201.199 41.2216L209.868 44.8513L202.814 51.061L202.04 60.4269L193.955 55.6371L184.808 57.7959L186.865 48.626L181.985 40.5943L191.342 39.7167L197.473 32.594Z" fill="#FFBE0B"/>
</svg>
