<svg width="39" height="39" viewBox="0 0 39 39" fill="none" xmlns="http://www.w3.org/2000/svg">
<path d="M18.4615 18.9942L16.7393 22.4841L12.8879 23.0438C12.4574 23.1063 12.0997 23.4077 11.9655 23.8213C11.831 24.2349 11.9432 24.6889 12.2544 24.9927L15.0413 27.709L14.3834 31.545C14.3099 31.9737 14.486 32.407 14.838 32.6626C15.1897 32.9182 15.6563 32.9521 16.0413 32.7497L19.486 30.9386L22.9307 32.7497C23.0979 32.8375 23.2806 32.881 23.4624 32.881C23.4636 32.881 23.4645 32.881 23.4657 32.881C24.0959 32.8801 24.6065 32.3689 24.6065 31.7384C24.6065 31.6506 24.5967 31.5652 24.5779 31.4831L23.9307 27.709L26.7176 24.9927C27.0291 24.6889 27.1413 24.2349 27.0068 23.8213C26.8723 23.4077 26.5146 23.1063 26.0844 23.0438L22.2329 22.4844L20.5107 18.9942C20.3182 18.6044 19.921 18.3574 19.4863 18.3574C19.0513 18.3574 18.6541 18.6044 18.4615 18.9942ZM20.4497 24.0343C20.6161 24.3714 20.938 24.6053 21.31 24.6592L23.4648 24.9722L21.9056 26.492C21.6364 26.7545 21.5135 27.1327 21.5769 27.5034L21.9452 29.6496L20.018 28.6362C19.6851 28.4615 19.2872 28.4612 18.9546 28.6362L17.0271 29.6496L17.3954 27.5034C17.4588 27.1327 17.3359 26.7545 17.0666 26.492L15.5075 24.9722L17.6623 24.6592C18.0346 24.6053 18.3562 24.3714 18.5225 24.0343L19.4863 22.0818L20.4497 24.0343Z" fill="#FB5607"/>
<path d="M31.1112 6.11934H26.282C26.5783 5.54388 26.7467 4.89256 26.7467 4.20225C26.7467 1.88496 24.8615 0 22.5445 0C21.3394 0 20.2519 0.51059 19.4848 1.32616C18.718 0.51059 17.6305 0 16.4255 0C14.1082 0 12.2232 1.88496 12.2232 4.20225C12.2232 4.89256 12.3916 5.54388 12.688 6.11934H7.8585C5.54121 6.11934 3.65625 8.0043 3.65625 10.3213V13.3807C3.65625 14.0118 4.16773 14.5232 4.79883 14.5232H4.88006V34.7978C4.88006 37.115 6.76501 39 9.08231 39H29.8873C32.2043 39 34.0896 37.115 34.0896 34.7978V14.5232H34.1708C34.8019 14.5232 35.3134 14.0118 35.3134 13.3807V10.3213C35.3134 8.0043 33.4284 6.11934 31.1112 6.11934ZM33.0282 10.3213V12.2381H20.6274V8.4045H31.1112C32.1683 8.4045 33.0282 9.2644 33.0282 10.3213ZM22.5445 2.28516C23.6014 2.28516 24.4616 3.14507 24.4616 4.20225C24.4616 5.25943 23.6014 6.11934 22.5445 6.11934H20.6274V4.20225C20.6274 3.14507 21.4873 2.28516 22.5445 2.28516ZM14.5084 4.20225C14.5084 3.14507 15.3683 2.28516 16.4255 2.28516C17.4823 2.28516 18.3422 3.14507 18.3422 4.20225V6.11934H16.4255C15.3683 6.11934 14.5084 5.25943 14.5084 4.20225ZM5.94141 10.3213C5.94141 9.2644 6.80132 8.4045 7.8585 8.4045H18.3422V12.2381H5.94141V10.3213ZM31.8044 34.7978C31.8044 35.8549 30.9442 36.7148 29.8873 36.7148H9.08231C8.02542 36.7148 7.16521 35.8549 7.16521 34.7978V14.5232H31.8044V34.7978Z" fill="#FB5607"/>
</svg>
