<svg width="239" height="246" viewBox="0 0 239 246" fill="none" xmlns="http://www.w3.org/2000/svg">
<rect x="31.9941" y="29.0602" width="162.024" height="162.541" rx="81.0122" fill="#F1F2FD"/>
<rect x="8.41406" y="70.2077" width="17.2453" height="17.3006" rx="2" fill="#F1F2FD"/>
<rect y="191.601" width="31.9944" height="32.097" rx="2" fill="#F1F2FD"/>
<path d="M227.77 139.08C233.972 139.08 239 134.036 239 127.813C239 121.591 233.972 116.547 227.77 116.547C221.567 116.547 216.539 121.591 216.539 127.813C216.539 134.036 221.567 139.08 227.77 139.08Z" fill="#F1F2FD"/>
<ellipse rx="33.3918" ry="33.4988" transform="matrix(0.999962 -0.00876863 0.00871268 0.999962 174.819 33.7903)" fill="#3A86FF"/>
<path d="M161.981 36.4452L170.263 44.6101L187.935 26.5682" stroke="white" stroke-width="1.85688"/>
<path d="M57.4074 244.833L90.7129 245.409C90.7129 245.409 81.3736 239.739 77.7927 239.073C77.7927 239.073 88.6189 207.217 91.9333 194.184C94.1449 185.488 102.228 161.718 102.228 161.718L106.959 195.326L106.361 245.553L140.979 245.999C140.979 245.999 128.943 240.071 125.628 239.407C125.628 239.407 127.45 208.573 128.36 194.412C129.271 174.541 127.222 140.053 119.473 127.955C109.359 117.879 97.534 117.822 86.9246 133.43C79.4115 153.986 70.9877 188.246 70.9877 188.246L57.4074 244.833Z" fill="#8338EC"/>
<path d="M169.196 80.7789C169.196 80.7789 175.178 69.5967 177.52 70.0918C179.337 70.4666 172.114 85.7025 173.042 86.3114C174.53 87.2866 177.836 82.2868 177.836 82.2868C177.836 82.2868 174.736 86.5148 175.306 88.2757C175.657 89.3621 180.981 84.7251 180.981 84.7251C180.981 84.7251 152.373 127.116 142.977 126.714C137.55 126.489 124.715 113.292 124.715 113.292" stroke="#170C2C" stroke-width="0.929175" stroke-linejoin="bevel"/>
<path d="M125.315 93.6475C131.151 94.3146 142.981 106.466 142.981 106.466C142.981 106.466 159.735 86.3874 163.133 82.7608" stroke="#170C2C" stroke-width="0.929175" stroke-linejoin="bevel"/>
<path d="M81.5352 115.097C78.7909 115.086 76.518 112.844 77.015 110.144C77.3438 108.358 77.8565 106.606 78.5476 104.918C79.8665 101.695 81.809 98.7668 84.2627 96.3018C86.7164 93.8368 89.6327 91.8841 92.8431 90.5565C96.0535 89.2288 99.4943 88.5526 102.967 88.5669C106.439 88.5811 109.874 89.2856 113.074 90.6396C116.273 91.9936 119.174 93.9702 121.607 96.4553C124.041 98.9403 125.959 101.885 127.252 105.118C127.93 106.815 128.429 108.575 128.743 110.367C129.216 113.068 126.932 115.283 124.192 115.272L81.5352 115.097Z" fill="#FB5607"/>
<path d="M107.267 69.3061C107.267 69.3061 116.368 72.132 118.984 78.1655C121.6 84.1989 115.743 91.601 115.743 91.601L94.4325 89.3671L107.267 69.3061Z" fill="black"/>
<path d="M100.357 96.0481L94.4469 80.5725C94.4469 80.5725 88.6023 79.7009 88.2886 75.8066C87.975 71.9124 92.1718 72.2801 92.1718 72.2801C92.1718 72.2801 92.2631 66.7724 97.4199 64.6032C102.577 62.4339 107.518 67.5542 108.547 71.9032C110.066 78.3277 108.433 82.232 101.744 82.9279L105.411 91.2926" fill="#FFBE0B"/>
<path d="M98.7316 91.7874C103.832 88.154 94.3378 70.6686 94.3378 70.6686C101.121 72.0678 106.965 68.415 106.965 68.415C106.965 68.415 102.346 60.0715 93.099 64.4272C83.8522 68.7828 83.8339 75.6597 83.8339 75.6597C83.8339 75.6597 74.4092 81.6519 77.0871 90.0244C79.7649 98.3969 90.5139 100.898 90.5139 100.898C90.5139 100.898 94.6794 94.6736 98.7316 91.7874Z" fill="black"/>
<path d="M176.059 77.6578C176.059 77.6578 181.941 81.2007 180.932 84.9623" stroke="#170C2C" stroke-width="0.929175" stroke-linejoin="bevel"/>
<path d="M163.131 82.7726C163.131 82.7726 167.935 76.7427 171.047 77.9783C173.034 78.7945 174.894 79.8914 176.572 81.2356C176.572 81.2356 175.115 83.995 170.768 81.7919" fill="white"/>
<path d="M163.131 82.7726C163.131 82.7726 167.935 76.7427 171.047 77.9783C173.034 78.7945 174.894 79.8914 176.572 81.2356C176.572 81.2356 175.115 83.995 170.768 81.7919" stroke="#170C2C" stroke-width="0.929175" stroke-miterlimit="10"/>
<path d="M75.0116 103.779C75.0116 103.779 50.1107 129.303 53.0699 140.764C55.5944 150.56 104.749 143.24 104.749 143.24M106.664 132.885L76.2305 132.442L88.7747 114.497" stroke="black" stroke-width="0.929175" stroke-miterlimit="10" stroke-linejoin="bevel"/>
<path d="M106.805 142.546C106.805 142.546 113.559 149.724 114.499 149.164C115.456 148.613 110.64 140.887 110.64 140.887C110.64 140.887 117.344 149.382 118.596 148.733C119.847 148.084 113.571 137.752 113.571 137.752C113.571 137.752 120.222 144.275 121.368 143.118C122.514 141.961 116.1 135.607 116.1 135.607C113.489 133.304 110.262 132.511 106.575 132.904" stroke="black" stroke-width="0.929175" stroke-miterlimit="10" stroke-linejoin="bevel"/>
<path d="M118.439 135.429C123.857 135.429 128.557 139.063 129.884 144.494L161.078 144.494C162.661 144.494 163.943 145.767 163.943 147.516C163.943 149.314 162.661 150.538 161.078 150.538L159.571 150.538L159.571 156.779L155.553 156.779L155.553 150.578L153.13 150.578L153.13 154.569L149.713 154.569L149.713 150.505L130.054 150.505C129.38 156.827 124.435 160.846 118.436 160.846C117.175 160.847 115.924 160.627 114.738 160.198" stroke="#170C2C" stroke-width="0.93" stroke-miterlimit="10"/>
<path d="M113.312 152.204C115.08 154.833 118.637 155.528 121.259 153.755C123.88 151.982 124.572 148.412 122.805 145.783" stroke="#170C2C" stroke-width="0.93" stroke-miterlimit="10"/>
<path d="M188.082 128.4C191.946 128.4 195.707 129.648 198.808 131.96C201.91 134.271 204.187 137.522 205.304 141.233C206.42 144.944 206.316 148.917 205.007 152.563C203.698 156.21 201.253 159.337 198.035 161.482L197.663 161.73L197.805 162.154L215.457 215.322H205.775L189.038 164.891L188.146 162.202C190.954 160.234 193.184 157.547 194.605 154.421C196.026 151.295 196.587 147.844 196.227 144.427C195.868 141.01 194.603 137.752 192.563 134.992C190.523 132.232 187.783 130.071 184.628 128.734C185.769 128.512 186.929 128.4 188.092 128.4H188.082ZM188.092 127.814C186.245 127.813 184.408 128.089 182.643 128.632C186.004 129.669 189.003 131.643 191.291 134.323C193.579 137.003 195.061 140.279 195.565 143.771C196.07 147.263 195.576 150.827 194.141 154.048C192.706 157.269 190.389 160.016 187.459 161.968L188.491 165.076L205.372 215.908H216.288L198.383 161.968C201.707 159.754 204.231 156.526 205.583 152.761C206.935 148.995 207.043 144.894 205.89 141.062C204.737 137.231 202.385 133.874 199.183 131.488C195.98 129.102 192.097 127.814 188.107 127.814H188.092Z" fill="#170C2C"/>
<path d="M176.774 165.076L177.805 161.968C174.876 160.016 172.559 157.269 171.124 154.047C169.689 150.826 169.195 147.262 169.7 143.77C170.205 140.278 171.687 137.002 173.975 134.322C176.263 131.642 179.262 129.669 182.624 128.632C185.986 129.669 188.985 131.643 191.272 134.323C193.56 137.003 195.042 140.279 195.547 143.771C196.052 147.263 195.558 150.827 194.123 154.048C192.688 157.269 190.371 160.016 187.441 161.968L188.472 165.076L205.354 215.908H159.893L176.774 165.076Z" fill="#FFBE0B"/>
<path d="M187.818 161.955H197.874" stroke="#170C2C" stroke-width="0.620995" stroke-miterlimit="10"/>
</svg>
