<svg width="233" height="138" viewBox="0 0 233 138" fill="none" xmlns="http://www.w3.org/2000/svg">
<rect x="61.1934" width="133.169" height="132.98" rx="66.4898" fill="#F1F2FD"/>
<path d="M184.4 137.45L177.419 112.888C174.043 101.344 163.218 93.5885 151.181 94.124C136.72 94.7786 125.577 107.076 126.332 121.516L126.783 138C139.356 137.698 146.564 137.626 146.564 137.626L153.779 137.434L184.4 137.45Z" fill="#3A86FF"/>
<path d="M154.288 137.301L147.485 123.401" stroke="white" stroke-width="0.597941" stroke-miterlimit="10"/>
<path d="M121.796 48.2086C119.422 48.3823 112.627 61.0006 112.627 61.0006L95.0479 66.3683" stroke="#170C2C" stroke-width="0.63857" stroke-miterlimit="10"/>
<path d="M130.25 63.8224C130.25 63.8224 128.67 68.6034 124.27 71.8528C119.784 75.1658 111.562 78.9999 90.4256 78.6907C81.9214 78.5657 77.5898 77.712 77.5898 76.117C77.5898 74.5219 78.9177 65.4747 80.0505 65.4747C81.1832 65.4747 81.8493 73.9097 81.8493 73.9097C81.8493 73.9097 82.3966 63.8267 83.5824 63.7758C84.7682 63.725 85.4385 73.7487 85.4385 73.7487C85.4385 73.7487 85.7015 66.3877 86.9403 66.3877C88.1791 66.3877 89.0022 75.6869 89.0022 75.6869" stroke="#170C2C" stroke-width="0.63857" stroke-miterlimit="10"/>
<path d="M122.092 45.9701C119.884 45.9195 118.02 47.6788 118.316 49.8679C118.583 51.8494 119.084 53.7971 119.811 55.67C121.022 58.7896 122.836 61.6405 125.15 64.0599C127.464 66.4793 130.233 68.4199 133.298 69.7708C136.363 71.1217 139.665 71.8566 143.014 71.9334C146.364 72.0101 149.695 71.4273 152.819 70.2183C155.943 69.0092 158.798 67.1975 161.221 64.8867C163.644 62.5759 165.587 59.8111 166.94 56.7503C167.752 54.9128 168.342 52.9902 168.7 51.0233C169.096 48.8498 167.315 47.0067 165.106 46.9561L122.092 45.9701Z" fill="#FB5607"/>
<ellipse cx="82.362" cy="92.5107" rx="33.6491" ry="33.602" fill="#FFBE0B"/>
<path d="M116.765 87.3541C116.765 87.3541 107.452 92.7409 107.713 93.9568C107.974 95.1727 115.643 91.2624 115.643 91.2624C115.643 91.2624 107.457 97.5198 107.718 98.9115C107.979 100.303 116.773 94.7829 116.773 94.7829C116.773 94.7829 110.507 99.9092 110.768 100.954C111.029 101.998 118.192 98.0853 120.95 97.7379C123.708 97.3906 147.406 91.2094 150.192 88.0807C152.977 84.952 163.384 63.8009 163.384 63.8009" stroke="#170C2C" stroke-width="0.63857" stroke-linejoin="bevel"/>
<path d="M153.81 48.5665C151.901 48.4797 142.402 73.9414 142.402 73.9414L118.644 84.4142H116.012" stroke="#170C2C" stroke-width="0.63857" stroke-linejoin="bevel"/>
<path d="M131.909 33.9216C133.184 40.0105 139.158 43.9136 145.255 42.6407C150.646 41.5152 154.325 36.7233 154.226 31.4194C154.211 30.7238 154.134 30.021 153.986 29.3133C152.712 23.2268 146.738 19.3213 140.64 20.5942C137.467 21.256 134.889 23.1882 133.324 25.7459C131.88 28.1081 131.299 31.0015 131.909 33.9216Z" fill="#FFBE0B"/>
<path d="M130.349 21.7455C130.879 24.2743 133.36 25.8949 135.893 25.3684C138.132 24.9023 139.661 22.9097 139.62 20.707C139.615 20.4171 139.581 20.1249 139.521 19.8326C138.991 17.3038 136.509 15.6832 133.977 16.2097C132.659 16.4851 131.587 17.2869 130.937 18.3496C130.337 19.3327 130.095 20.533 130.349 21.7455Z" fill="black"/>
<path d="M137.679 18.8744C138 20.4154 139.512 21.4032 141.055 21.082C142.419 20.797 143.35 19.5845 143.326 18.2416C143.324 18.0653 143.302 17.8866 143.266 17.7078C142.944 16.1669 141.432 15.1791 139.889 15.5003C139.086 15.6669 138.433 16.1572 138.037 16.8045C137.671 17.4035 137.524 18.1354 137.679 18.8744Z" fill="black"/>
<path d="M149.975 30.15C150.437 32.3624 152.607 33.7801 154.822 33.3164C156.779 32.9082 158.116 31.1668 158.08 29.2394C158.075 28.9858 158.046 28.7322 157.993 28.4738C157.531 26.2638 155.362 24.8436 153.146 25.3074C151.995 25.5489 151.056 26.2493 150.488 27.1792C149.966 28.039 149.753 29.0897 149.975 30.15Z" fill="#FFBE0B"/>
<path d="M133.776 25.3457C133.776 25.3457 138.215 27.0219 145.035 24.2492L146.915 30.7897L151.033 28.9348C151.033 28.9348 151.348 24.8675 155.348 25.4544C155.348 25.4544 154.074 17.8173 149.311 17.257C140.984 16.2788 134.814 21.1407 133.776 25.3457Z" fill="black"/>
<path d="M81.0869 72.9178V94.098H98.6756" stroke="white" stroke-width="3.90607"/>
<rect y="37.6123" width="33.9126" height="33.8651" rx="2" fill="#F1F2FD"/>
<path d="M206.265 137.999C212.84 137.999 218.169 132.677 218.169 126.112C218.169 119.547 212.84 114.225 206.265 114.225C199.691 114.225 194.361 119.547 194.361 126.112C194.361 132.677 199.691 137.999 206.265 137.999Z" fill="#F1F2FD"/>
<rect x="214.721" y="14.7574" width="18.2792" height="18.2536" rx="2" fill="#F1F2FD"/>
</svg>
