<svg width="254" height="173" viewBox="0 0 254 173" fill="none" xmlns="http://www.w3.org/2000/svg">
<rect x="34.9531" width="172.33" height="172.327" rx="86.1633" fill="#F1F2FD"/>
<rect y="86.1631" width="18.3422" height="18.3422" rx="2" fill="#F1F2FD"/>
<path d="M241.226 86.163C247.823 86.163 253.171 80.815 253.171 74.218C253.171 67.6209 247.823 62.2729 241.226 62.2729C234.629 62.2729 229.281 67.6209 229.281 74.218C229.281 80.815 234.629 86.163 241.226 86.163Z" fill="#F1F2FD"/>
<path fill-rule="evenodd" clip-rule="evenodd" d="M90.0391 51.8596C90.0391 35.5981 103.222 22.4155 119.483 22.4155C135.745 22.4155 148.927 35.5981 148.927 51.8596V68.5683H136.907V51.8596C136.907 42.2366 129.106 34.4355 119.483 34.4355C109.86 34.4355 102.059 42.2366 102.059 51.8596V68.5683H90.0391V51.8596Z" stroke="#170C2C" stroke-width="1.09247" stroke-miterlimit="10"/>
<rect x="69.627" y="64.4006" width="99.7122" height="83.6679" rx="13.4941" fill="#FB5607"/>
<path fill-rule="evenodd" clip-rule="evenodd" d="M122.803 108.668C126.527 107.312 129.187 103.74 129.187 99.5465C129.187 94.1869 124.842 89.842 119.483 89.842C114.123 89.842 109.778 94.1869 109.778 99.5465C109.778 103.74 112.438 107.312 116.162 108.668L107.689 131.947H131.276L122.803 108.668Z" fill="white"/>
<circle cx="177.041" cy="83.367" r="22.6702" transform="rotate(-0.500807 177.041 83.367)" fill="#FFBE0B"/>
<path d="M177.041 73.5293V85.3622" stroke="white" stroke-width="2.53015"/>
<path d="M177.041 89.0515L177.041 93.2049" stroke="white" stroke-width="2.53015"/>
</svg>
