<svg width="20" height="20" viewBox="0 0 20 20" fill="none" xmlns="http://www.w3.org/2000/svg">
<g opacity="0.6">
<path d="M3.56702 6.10091L3.43545 5.28453C3.30504 4.47532 4.15008 3.86151 4.8793 4.23575L5.7535 4.6844C6.05766 4.8405 6.41873 4.82683 6.7335 4.6934C7.74225 4.26578 9.64109 3.78595 11.8893 4.15846C15.2579 4.71661 18.6266 6.9007 18.8743 10.5894C19.0495 13.1985 17.611 15.0134 16.6134 15.8126C16.3902 15.9914 16.2215 16.2353 16.1739 16.5173L15.9199 18.0235C15.8382 18.5081 15.4165 18.8615 14.9251 18.8572L13.5393 18.8451C13.2378 18.8424 12.9899 18.6069 12.9718 18.306C12.95 17.9431 12.5999 17.6923 12.2421 17.7562C10.8518 18.0044 9.48518 17.893 8.57439 17.7276C8.18384 17.6567 7.79282 17.9236 7.75615 18.3188C7.72617 18.6419 7.45513 18.8889 7.1307 18.8889H5.78981C5.3059 18.8889 4.89143 18.5424 4.80565 18.0662L4.50437 16.3935C4.45898 16.1415 4.31628 15.9189 4.11932 15.7553C3.23154 15.018 2.67341 14.1702 2.37783 13.5662C2.21684 13.2372 1.93196 12.9685 1.57379 12.8918L0.790778 12.7243C0.329561 12.6256 5.69251e-06 12.218 1.36591e-05 11.7464L4.02651e-05 10.1712C4.8314e-05 9.69467 0.336306 9.28435 0.803546 9.19072L1.61506 9.02809C1.96462 8.95804 2.2459 8.70441 2.40565 8.3857C2.67335 7.85161 3.04979 7.30926 3.34771 6.9228C3.52807 6.68884 3.61402 6.39256 3.56702 6.10091Z" fill="#FB5607"/>
<ellipse cx="5.00001" cy="8.33339" rx="0.555556" ry="0.555556" fill="white"/>
<ellipse cx="10.5555" cy="3.88889" rx="3.88889" ry="3.88889" fill="#FFBE0B"/>
</g>
</svg>
