<svg width="273" height="227" viewBox="0 0 273 227" fill="none" xmlns="http://www.w3.org/2000/svg">
<rect x="52.2871" width="166.28" height="172.534" rx="68.9346" fill="#F1F2FD"/>
<path d="M90.7852 90.2988L109.106 89.1892" stroke="black" stroke-width="0.715578" stroke-miterlimit="10" stroke-linejoin="bevel"/>
<path d="M103.656 69.7339L70.7129 72.5696" stroke="black" stroke-width="0.715578" stroke-miterlimit="10" stroke-linejoin="bevel"/>
<path d="M92.2443 81.2747C81.9753 71.0058 65.3177 71.0058 55.0487 81.2747L49.973 86.3504L44.8973 81.2747C34.6284 71.0058 17.9707 71.0058 7.70172 81.2747C-2.56724 91.5437 -2.56724 108.201 7.70172 118.47L12.7774 123.546L47.1446 157.913C48.7067 159.475 51.2393 159.475 52.8014 157.913L87.1686 123.546L92.2443 118.47C102.513 108.201 102.513 91.5633 92.2443 81.2747Z" fill="#FFBE0B"/>
<path d="M184.571 172.295L175.905 141.761C171.713 127.41 158.275 117.768 143.332 118.434C125.381 119.248 111.547 134.536 112.484 152.487L113.044 172.979C128.653 172.604 137.601 172.514 137.601 172.514L146.557 172.276L184.571 172.295Z" fill="#3A86FF"/>
<path d="M147.191 172.11L138.746 154.83" stroke="white" stroke-width="0.613353" stroke-miterlimit="10"/>
<path d="M127.23 53.8543C127.378 60.7832 133.123 66.282 140.052 66.1341C146.167 66.0108 151.173 61.4983 152.159 55.679C152.283 54.9146 152.356 54.1255 152.332 53.3118C152.184 46.3828 146.439 40.884 139.51 41.032C135.909 41.1059 132.679 42.7087 130.46 45.1746C128.389 47.4924 127.156 50.5501 127.23 53.8543Z" fill="#FFBE0B"/>
<path d="M127.749 40.2181C127.798 43.1031 130.19 45.3717 133.075 45.3223C135.615 45.273 137.686 43.399 138.105 40.9825C138.155 40.6619 138.179 40.3414 138.179 39.9962C138.13 37.1111 135.738 34.8426 132.853 34.8919C131.349 34.9166 130.017 35.5823 129.105 36.618C128.217 37.555 127.724 38.8372 127.749 40.2181Z" fill="#8338EC"/>
<path d="M136.355 38.566C136.404 40.3167 137.834 41.7222 139.61 41.6729C141.163 41.6482 142.421 40.4893 142.667 39.0345C142.692 38.8372 142.717 38.6399 142.717 38.4427C142.667 36.6919 141.237 35.2864 139.462 35.3357C138.55 35.3604 137.736 35.7549 137.169 36.396C136.626 36.9385 136.33 37.7276 136.355 38.566Z" fill="#8338EC"/>
<path d="M147.499 53.4101C147.548 55.9252 149.644 57.9225 152.159 57.8732C154.379 57.8239 156.203 56.1965 156.549 54.0759C156.598 53.8046 156.623 53.5087 156.598 53.2128C156.549 50.6977 154.453 48.7004 151.938 48.7497C150.631 48.7743 149.472 49.3661 148.658 50.2538C147.918 51.0922 147.474 52.2018 147.499 53.4101Z" fill="#FFBE0B"/>
<path d="M130.756 44.8539C130.756 44.8539 135.268 47.591 143.282 45.9389L143.997 53.4843L148.88 52.3007C148.88 52.3007 150.063 47.9115 154.304 49.3664C154.304 49.3664 154.477 40.736 149.373 39.1578C140.496 36.3961 132.753 40.4647 130.756 44.8539Z" fill="#8338EC"/>
<path d="M169.854 75.1663C170.944 75.3464 171.687 76.3777 171.441 77.4544C170.636 80.9709 169.252 84.3342 167.341 87.4053C165.078 91.0432 162.121 94.1997 158.638 96.6947C155.155 99.1897 151.215 100.974 147.043 101.947C142.87 102.919 138.547 103.06 134.32 102.361C130.093 101.663 126.045 100.138 122.407 97.8754C118.769 95.6124 115.613 92.6551 113.118 89.1723C110.623 85.6894 108.838 81.7492 107.866 77.5767C107.045 74.0543 106.817 70.4246 107.186 66.836C107.299 65.7372 108.335 65 109.424 65.1801L139.639 70.1732L169.854 75.1663Z" fill="#FB5607"/>
<path d="M98.8038 98.2655C90.5682 96.2305 83.1785 96.7707 82.889 98.0199C82.3769 100.23 95.1034 102.546 95.1034 102.546C95.1034 102.546 77.8637 102.12 77.2502 104.003C76.7515 105.609 95.4513 108.145 95.4513 108.145C95.4513 108.145 79.6616 108.561 80.7829 111.149C81.4561 112.723 90.9184 111.321 94.6777 113.23C98.4371 115.139 117.616 144.372 131.836 148.325C161.863 154.581 167.076 86.6035 167.076 86.6035" stroke="black" stroke-width="0.715578" stroke-miterlimit="10" stroke-linejoin="bevel"/>
<path d="M0.875246 88.8575C0.875246 88.8575 11.3144 96.1751 12.3618 95.2222C13.4333 94.2746 5.30988 85.7576 5.30988 85.7576C5.30988 85.7576 16.0295 94.7553 17.4491 93.6078C18.8686 92.4603 8.2149 81.0262 8.2149 81.0262C8.2149 81.0262 18.3532 87.5435 19.5064 85.7803C20.6597 84.0172 10.8661 77.6529 10.8661 77.6529" stroke="black" stroke-width="0.715578" stroke-miterlimit="10" stroke-linejoin="bevel"/>
<path d="M28.262 48.7486C36.2185 48.7486 42.6686 42.2986 42.6686 34.3421C42.6686 26.3856 36.2185 19.9355 28.262 19.9355C20.3055 19.9355 13.8555 26.3856 13.8555 34.3421C13.8555 42.2986 20.3055 48.7486 28.262 48.7486Z" fill="#F1F2FD"/>
<path d="M232.369 52.7859L232.369 85.1893C232.369 87.3984 234.16 89.1892 236.369 89.1892L268.772 89.1892C270.982 89.1892 272.772 87.3984 272.772 85.1893L272.772 52.7859C272.772 50.5768 270.982 48.786 268.772 48.786L236.369 48.786C234.16 48.786 232.369 50.5768 232.369 52.7859Z" fill="#F1F2FD"/>
<path d="M108.92 189.726C107.626 188.841 105.863 189.72 105.792 191.287L104.341 223.504C104.274 224.991 105.796 226.027 107.154 225.42L136.518 212.311C137.946 211.673 138.123 209.718 136.832 208.834L108.92 189.726Z" fill="#F1F2FD"/>
<path d="M145.42 94.369L134.963 127.056C134.963 127.056 108.142 98.0505 99.2011 95.3457" stroke="black" stroke-width="0.715578" stroke-miterlimit="10" stroke-linejoin="bevel"/>
</svg>
