<svg width="383" height="121" viewBox="0 0 383 121" fill="none" xmlns="http://www.w3.org/2000/svg">
<ellipse cx="282.5" cy="60.5" rx="282.5" ry="267.5" fill="white" fill-opacity="0.2"/>
<ellipse cx="284" cy="60.5" rx="202" ry="196.5" fill="white" fill-opacity="0.2"/>
<circle cx="284.067" cy="60.5306" r="121.446" fill="white" fill-opacity="0.5"/>
<circle cx="284.067" cy="60.5306" r="82.2701" fill="white" fill-opacity="0.9"/>
<path d="M326.573 23.803H238.426C236.479 23.8052 234.612 24.5798 233.235 25.9569C231.858 27.334 231.083 29.201 231.081 31.1485V46.1777C231.081 46.1956 231.078 46.2131 231.078 46.231C231.078 46.2489 231.081 46.2664 231.081 46.2844V89.9129C231.083 91.8604 231.858 93.7274 233.235 95.1045C234.612 96.4816 236.479 97.2562 238.426 97.2584H326.573C328.52 97.2562 330.387 96.4816 331.764 95.1045C333.142 93.7274 333.916 91.8604 333.918 89.9129V31.1485C333.916 29.201 333.142 27.334 331.764 25.9569C330.387 24.5798 328.52 23.8052 326.573 23.803ZM286.17 82.5673H278.824C277.85 82.5673 276.916 82.1804 276.227 81.4916C275.538 80.8028 275.151 79.8687 275.151 78.8946C275.151 77.9205 275.538 76.9863 276.227 76.2975C276.916 75.6087 277.85 75.2218 278.824 75.2218H286.17C287.144 75.2218 288.078 75.6087 288.767 76.2975C289.455 76.9863 289.842 77.9205 289.842 78.8946C289.842 79.8687 289.455 80.8028 288.767 81.4916C288.078 82.1804 287.144 82.5673 286.17 82.5673ZM315.552 82.5673H300.861C299.887 82.5673 298.952 82.1804 298.264 81.4916C297.575 80.8028 297.188 79.8687 297.188 78.8946C297.188 77.9205 297.575 76.9863 298.264 76.2975C298.952 75.6087 299.887 75.2218 300.861 75.2218H315.552C316.526 75.2218 317.46 75.6087 318.149 76.2975C318.838 76.9863 319.225 77.9205 319.225 78.8946C319.225 79.8687 318.838 80.8028 318.149 81.4916C317.46 82.1804 316.526 82.5673 315.552 82.5673ZM238.426 42.5582V31.1485H326.573L326.574 42.5582H238.426Z" fill="#3A86FF"/>
</svg>
